<?xml version="1.0" encoding="UTF-8"?>
<svg width="24px" height="24px" viewBox="0 0 24 24" version="1.1" xmlns="http://www.w3.org/2000/svg" xmlns:xlink="http://www.w3.org/1999/xlink">
    <!-- Generator: Sketch 58 (84663) - https://sketch.com -->
    <title>编组 5备份 9@3x</title>
    <desc>Created with Sketch.</desc>
    <g id="Page-1" stroke="none" stroke-width="1" fill="none" fill-rule="evenodd">
        <g id="02企业动态-车型概况" transform="translate(-476.000000, -1006.000000)">
            <g id="编组-5备份-9" transform="translate(476.000000, 1006.000000)">
                <path d="M0,0 C0,13.254834 10.745166,24 24,24 L24,0" id="路径" fill="#8E8E8E"></path>
                <g id="编组" transform="translate(10.000000, 5.000000)" fill="#FFFFFF">
                    <path d="M0.353553391,0.464628428 L0.464628428,0.353553391 C0.659890573,0.158291245 0.976473063,0.158291245 1.17173521,0.353553391 L8.64644661,7.82826479 C8.84170876,8.02352694 8.84170876,8.34010943 8.64644661,8.53537157 L8.53537157,8.64644661 C8.34010943,8.84170876 8.02352694,8.84170876 7.82826479,8.64644661 L0.353553391,1.17173521 C0.158291245,0.976473063 0.158291245,0.659890573 0.353553391,0.464628428 Z" id="矩形"></path>
                    <path d="M8.53537157,0.353553391 L8.64644661,0.464628428 C8.84170876,0.659890573 8.84170876,0.976473063 8.64644661,1.17173521 L1.17173521,8.64644661 C0.976473063,8.84170876 0.659890573,8.84170876 0.464628428,8.64644661 L0.353553391,8.53537157 C0.158291245,8.34010943 0.158291245,8.02352694 0.353553391,7.82826479 L7.82826479,0.353553391 C8.02352694,0.158291245 8.34010943,0.158291245 8.53537157,0.353553391 Z" id="矩形"></path>
                </g>
            </g>
        </g>
    </g>
</svg>