<?xml version="1.0" encoding="UTF-8"?>
<svg width="12px" height="15px" viewBox="0 0 12 15" version="1.1" xmlns="http://www.w3.org/2000/svg" xmlns:xlink="http://www.w3.org/1999/xlink">
    <!-- Generator: Sketch 58 (84663) - https://sketch.com -->
    <title>编组 4@3x</title>
    <desc>Created with Sketch.</desc>
    <g id="Page-1" stroke="none" stroke-width="1" fill="none" fill-rule="evenodd">
        <g id="02企业动态-车型概况" transform="translate(-1302.000000, -1334.000000)" fill="#2E5AA6">
            <g id="编组" transform="translate(224.000000, 1314.000000)">
                <g id="编组-12" transform="translate(1056.000000, 0.000000)">
                    <g id="编组-4" transform="translate(22.000000, 20.000000)">
                        <rect id="Rectangle" transform="translate(5.646447, 5.000000) scale(1, -1) translate(-5.646447, -5.000000) " x="4.64644661" y="0" width="2" height="10" rx="1"></rect>
                        <path d="M5.59619387,11.2071068 L6.656854,10.1464466 L6.656854,10.1464466 L1.70710676,5.19669915 C1.31658249,4.80617487 0.683417534,4.80617485 0.292893246,5.19669912 C0.292893238,5.19669913 0.292893234,5.19669913 0.292893227,5.19669914 C-0.0976310637,5.58722344 -0.0976310679,6.22038841 0.292893217,6.61091271 L4.88908711,11.2071068 C5.08434924,11.4023689 5.40093173,11.4023689 5.59619387,11.2071068 C5.59619388,11.2071068 5.59619388,11.2071068 5.59619387,11.2071068 Z" id="Rectangle-Copy-3"></path>
                        <path d="M5.64644656,11.2071068 L4.58578644,10.1464466 L4.58578644,10.1464466 L9.53553372,5.19669914 C9.92605798,4.80617486 10.5592229,4.80617485 10.9497472,5.19669911 C10.9497472,5.19669913 10.9497472,5.19669913 10.9497472,5.19669914 C11.3402715,5.58722344 11.3402715,6.22038841 10.9497472,6.6109127 L6.35355333,11.2071068 C6.1582912,11.4023689 5.84170871,11.4023689 5.64644656,11.2071068 C5.64644656,11.2071068 5.64644656,11.2071068 5.64644656,11.2071068 Z" id="Rectangle-Copy-4"></path>
                        <rect id="Rectangle" x="1.64644661" y="13" width="8" height="2" rx="1"></rect>
                    </g>
                </g>
            </g>
        </g>
    </g>
</svg>